<?xml version="1.0" standalone="no"?><svg xmlns="http://www.w3.org/2000/svg" viewBox="0 0 1440 320"><path fill="#000b76" fill-opacity="1" d="M0,256L26.7,261.3C53.3,267,107,277,160,266.7C213.3,256,267,224,320,197.3C373.3,171,427,149,480,133.3C533.3,117,587,107,640,133.3C693.3,160,747,224,800,234.7C853.3,245,907,203,960,181.3C1013.3,160,1067,160,1120,165.3C1173.3,171,1227,181,1280,192C1333.3,203,1387,213,1413,218.7L1440,224L1440,320L1413.3,320C1386.7,320,1333,320,1280,320C1226.7,320,1173,320,1120,320C1066.7,320,1013,320,960,320C906.7,320,853,320,800,320C746.7,320,693,320,640,320C586.7,320,533,320,480,320C426.7,320,373,320,320,320C266.7,320,213,320,160,320C106.7,320,53,320,27,320L0,320Z"></path></svg>