<?xml version="1.0" standalone="no"?><svg xmlns="http://www.w3.org/2000/svg" viewBox="0 0 1440 320"><path fill="#0099ff" fill-opacity="1" d="M0,288L34.3,266.7C68.6,245,137,203,206,186.7C274.3,171,343,181,411,165.3C480,149,549,107,617,112C685.7,117,754,171,823,170.7C891.4,171,960,117,1029,112C1097.1,107,1166,149,1234,186.7C1302.9,224,1371,256,1406,272L1440,288L1440,0L1405.7,0C1371.4,0,1303,0,1234,0C1165.7,0,1097,0,1029,0C960,0,891,0,823,0C754.3,0,686,0,617,0C548.6,0,480,0,411,0C342.9,0,274,0,206,0C137.1,0,69,0,34,0L0,0Z"></path></svg>