<?xml version="1.0" standalone="no"?><svg xmlns="http://www.w3.org/2000/svg" viewBox="0 0 1440 320"><path fill="#0099ff" fill-opacity="1" d="M0,160L24,138.7C48,117,96,75,144,90.7C192,107,240,181,288,213.3C336,245,384,235,432,224C480,213,528,203,576,213.3C624,224,672,256,720,245.3C768,235,816,181,864,160C912,139,960,149,1008,165.3C1056,181,1104,203,1152,186.7C1200,171,1248,117,1296,117.3C1344,117,1392,171,1416,197.3L1440,224L1440,320L1416,320C1392,320,1344,320,1296,320C1248,320,1200,320,1152,320C1104,320,1056,320,1008,320C960,320,912,320,864,320C816,320,768,320,720,320C672,320,624,320,576,320C528,320,480,320,432,320C384,320,336,320,288,320C240,320,192,320,144,320C96,320,48,320,24,320L0,320Z"></path></svg>